# xmcd CD database file
#
# Track frame offsets:
#	187
#	12915
#	32187
#	46562
#	55937
#	69382
#	88095
#	107312
#	126272
#	146367
#
# Disc length: 2183 seconds
#
# Revision: 0
# Processed by: cddbd v1.5.1PL0 Copyright (c) Steve Scherf et al.
# Submitted via: CDex 1.51
#
DISCID=7a08850a
DTITLE=谷口宗一 - GROWING UP
DYEAR=1993
DGENRE=J ポップ
TTITLE0=NOT EVEN THE MOON LIGHT
TTITLE1=丘を越えて
TTITLE2=精一杯の思い
TTITLE3=日曜日
TTITLE4=YOU BELONG TO ME
TTITLE5=あした天気になあれ
TTITLE6=ちっぽけな天才達の中で
TTITLE7=太陽の君、三日月の僕
TTITLE8=風吹く丘
TTITLE9=明日のために
EXTD=YEAR: 1993
EXTT0=
EXTT1=
EXTT2=
EXTT3=
EXTT4=
EXTT5=
EXTT6=
EXTT7=
EXTT8=
EXTT9=
PLAYORDER=
